
<svg width="24" height="24" viewBox="0 0 24 24" fill="none" xmlns="http://www.w3.org/2000/svg">
<mask id="mask0_2_7097" style="mask-type:luminance" maskUnits="userSpaceOnUse" x="0" y="0" width="24" height="24">
<path d="M24 0H0V24H24V0Z" fill="white"/>
</mask>
<g mask="url(#mask0_2_7097)">
<path d="M9.38266 21.2697C9.13956 21.2718 8.8985 21.2254 8.67356 21.1332C8.44862 21.041 8.24434 20.9048 8.07266 20.7327L3.27266 15.9327C3.09822 15.7619 2.95964 15.558 2.86503 15.333C2.77041 15.108 2.72168 14.8663 2.72168 14.6222C2.72168 14.3781 2.77041 14.1364 2.86503 13.9114C2.95964 13.6864 3.09822 13.4825 3.27266 13.3117L13.3137 3.2617C13.4851 3.08927 13.6893 2.95291 13.9143 2.86068C14.1393 2.76845 14.3805 2.72222 14.6237 2.7247H19.4457C19.6868 2.72457 19.9257 2.77201 20.1485 2.86431C20.3713 2.9566 20.5738 3.09194 20.7442 3.26258C20.9146 3.43321 21.0498 3.63579 21.1418 3.85871C21.2339 4.08163 21.2811 4.32052 21.2807 4.5617V9.3787C21.2831 9.62185 21.2369 9.86304 21.1447 10.088C21.0525 10.313 20.9161 10.5173 20.7437 10.6887L10.6937 20.7327C10.522 20.9048 10.3177 21.041 10.0928 21.1332C9.86782 21.2254 9.62575 21.2718 9.38266 21.2697ZM9.01566 19.8087C9.11388 19.9067 9.24694 19.9617 9.38566 19.9617C9.52437 19.9617 9.65743 19.9067 9.75566 19.8087L19.8127 9.7527C19.8607 9.70446 19.8988 9.64721 19.9247 9.58424C19.9506 9.52126 19.9638 9.4538 19.9637 9.3857V4.5617C19.9637 4.42273 19.9084 4.28945 19.8102 4.19118C19.7119 4.09291 19.5786 4.0377 19.4397 4.0377H14.6247C14.5566 4.03752 14.4891 4.05076 14.4261 4.07667C14.3631 4.10258 14.3059 4.14065 14.2577 4.1887L4.19366 14.2467C4.09571 14.3449 4.0407 14.478 4.0407 14.6167C4.0407 14.7554 4.09571 14.8885 4.19366 14.9867L9.01566 19.8087Z" fill="#4285F4"/>
<path d="M17.697 6.90863C18.0587 6.90863 18.352 6.61538 18.352 6.25363C18.352 5.89189 18.0587 5.59863 17.697 5.59863C17.3352 5.59863 17.042 5.89189 17.042 6.25363C17.042 6.61538 17.3352 6.90863 17.697 6.90863Z" fill="#4285F4"/>
</g>
</svg>
