<svg width="24" height="24" viewBox="0 0 24 24" fill="none" xmlns="http://www.w3.org/2000/svg">
<g clip-path="url(#clip0_2_7069)">
<path d="M15.697 3.64099C15.9105 3.64284 16.1146 3.72923 16.2645 3.88124C16.4145 4.03324 16.4981 4.23848 16.497 4.45199V5.10099H17.622C17.9815 5.10152 18.3373 5.17329 18.669 5.31214C19.0006 5.451 19.3014 5.6542 19.554 5.90999C20.067 6.42973 20.3544 7.13073 20.354 7.86099V17.6C20.3542 18.3299 20.0667 19.0305 19.554 19.55C19.3015 19.8057 19.0008 20.0088 18.6694 20.1476C18.338 20.2865 17.9823 20.3583 17.623 20.359H6.37399C6.01431 20.3586 5.65828 20.2869 5.32649 20.148C4.9947 20.0092 4.69373 19.8059 4.44099 19.55C3.92825 19.0305 3.64082 18.3299 3.64099 17.6V7.86099C3.64082 7.13107 3.92825 6.43048 4.44099 5.91099C4.69349 5.65532 4.99414 5.45219 5.32557 5.31334C5.657 5.17448 6.01265 5.10265 6.37199 5.10199H7.49799V4.45399C7.49799 4.24089 7.58265 4.03652 7.73333 3.88583C7.88402 3.73515 8.08839 3.65049 8.30149 3.65049C8.51459 3.65049 8.71897 3.73515 8.86965 3.88583C9.02034 4.03652 9.10499 4.24089 9.10499 4.45399V5.10299H14.892V4.45399C14.8909 4.24048 14.9745 4.03524 15.1245 3.88324C15.2744 3.73123 15.4785 3.64484 15.692 3.64299L15.697 3.64099ZM5.24799 17.641C5.24666 17.9408 5.36441 18.2288 5.57536 18.4418C5.78631 18.6549 6.0732 18.7754 6.37299 18.777H17.625C17.9248 18.7754 18.2117 18.6549 18.4226 18.4418C18.6336 18.2288 18.7513 17.9408 18.75 17.641V7.86099L18.741 7.72899C18.7096 7.45424 18.5784 7.2006 18.3723 7.01624C18.1662 6.83188 17.8995 6.72966 17.623 6.72899H6.37299C6.0739 6.73058 5.78761 6.85057 5.57678 7.06272C5.36594 7.27487 5.24772 7.5619 5.24799 7.86099V17.641Z" fill="#777777"/>
<path d="M8.41699 11.448C8.65314 11.448 8.88399 11.378 9.08034 11.2468C9.2767 11.1156 9.42973 10.9291 9.5201 10.7109C9.61048 10.4927 9.63412 10.2527 9.58805 10.0211C9.54198 9.78945 9.42826 9.5767 9.26128 9.40971C9.09429 9.24273 8.88154 9.12901 8.64993 9.08294C8.41832 9.03687 8.17824 9.06051 7.96007 9.15089C7.74189 9.24126 7.55542 9.39429 7.42422 9.59065C7.29302 9.787 7.22299 10.0178 7.22299 10.254C7.22299 10.5707 7.34879 10.8744 7.57271 11.0983C7.79662 11.3222 8.10032 11.448 8.41699 11.448Z" fill="#777777"/>
<path d="M12 11.448C12.2362 11.448 12.467 11.378 12.6634 11.2468C12.8597 11.1156 13.0127 10.9291 13.1031 10.7109C13.1935 10.4927 13.2171 10.2527 13.1711 10.0211C13.125 9.78945 13.0113 9.5767 12.8443 9.40971C12.6773 9.24273 12.4646 9.12901 12.2329 9.08294C12.0013 9.03687 11.7613 9.06051 11.5431 9.15089C11.3249 9.24126 11.1384 9.39429 11.0072 9.59065C10.876 9.787 10.806 10.0178 10.806 10.254C10.806 10.5707 10.9318 10.8744 11.1557 11.0983C11.3796 11.3222 11.6833 11.448 12 11.448Z" fill="#777777"/>
<path d="M15.582 11.448C15.8182 11.448 16.049 11.378 16.2454 11.2468C16.4417 11.1156 16.5947 10.9291 16.6851 10.7109C16.7755 10.4927 16.7991 10.2527 16.7531 10.0211C16.707 9.78945 16.5933 9.5767 16.4263 9.40971C16.2593 9.24273 16.0466 9.12901 15.8149 9.08294C15.5833 9.03687 15.3433 9.06051 15.1251 9.15089C14.9069 9.24126 14.7204 9.39429 14.5892 9.59065C14.458 9.787 14.388 10.0178 14.388 10.254C14.388 10.5707 14.5138 10.8744 14.7377 11.0983C14.9616 11.3222 15.2653 11.448 15.582 11.448Z" fill="#777777"/>
<path d="M8.41699 15.675C8.65314 15.675 8.88399 15.605 9.08034 15.4738C9.2767 15.3426 9.42973 15.1561 9.5201 14.9379C9.61048 14.7197 9.63412 14.4797 9.58805 14.2481C9.54198 14.0164 9.42826 13.8037 9.26128 13.6367C9.09429 13.4697 8.88154 13.356 8.64993 13.3099C8.41832 13.2639 8.17824 13.2875 7.96007 13.3779C7.74189 13.4682 7.55542 13.6213 7.42422 13.8176C7.29302 14.014 7.22299 14.2448 7.22299 14.481C7.22299 14.7977 7.34879 15.1014 7.57271 15.3253C7.79662 15.5492 8.10032 15.675 8.41699 15.675Z" fill="#777777"/>
<path d="M12 15.675C12.2362 15.675 12.467 15.605 12.6634 15.4738C12.8597 15.3426 13.0127 15.1561 13.1031 14.9379C13.1935 14.7197 13.2171 14.4797 13.1711 14.2481C13.125 14.0164 13.0113 13.8037 12.8443 13.6367C12.6773 13.4697 12.4646 13.356 12.2329 13.3099C12.0013 13.2639 11.7613 13.2875 11.5431 13.3779C11.3249 13.4682 11.1384 13.6213 11.0072 13.8176C10.876 14.014 10.806 14.2448 10.806 14.481C10.806 14.7977 10.9318 15.1014 11.1557 15.3253C11.3796 15.5492 11.6833 15.675 12 15.675Z" fill="#777777"/>
<path d="M15.582 15.675C15.8182 15.675 16.049 15.605 16.2454 15.4738C16.4417 15.3426 16.5947 15.1561 16.6851 14.9379C16.7755 14.7197 16.7991 14.4797 16.7531 14.2481C16.707 14.0164 16.5933 13.8037 16.4263 13.6367C16.2593 13.4697 16.0466 13.356 15.8149 13.3099C15.5833 13.2639 15.3433 13.2875 15.1251 13.3779C14.9069 13.4682 14.7204 13.6213 14.5892 13.8176C14.458 14.014 14.388 14.2448 14.388 14.481C14.388 14.7977 14.5138 15.1014 14.7377 15.3253C14.9616 15.5492 15.2653 15.675 15.582 15.675Z" fill="#777777"/>
</g>
<defs>
<clipPath id="clip0_2_7069">
<rect width="24" height="24" fill="white"/>
</clipPath>
</defs>
</svg>
