
<svg width="24" height="24" viewBox="0 0 24 24" fill="none" xmlns="http://www.w3.org/2000/svg">
<g clip-path="url(#clip0_2_7081)">
<path d="M20.8 11.249C19.868 9.71929 18.5678 8.44727 17.018 7.54903C15.5038 6.63539 13.7689 6.15253 12.0005 6.15253C10.232 6.15253 8.49716 6.63539 6.98299 7.54903C5.43275 8.44704 4.13217 9.71908 3.19999 11.249C3.06925 11.4565 2.99988 11.6968 2.99988 11.942C2.99988 12.1873 3.06925 12.4275 3.19999 12.635C4.13182 14.1649 5.43207 15.4369 6.98199 16.335C8.49633 17.2476 10.2307 17.7303 11.9988 17.7312C13.7669 17.7321 15.5017 17.2511 17.017 16.34C18.5686 15.4442 19.8694 14.1717 20.799 12.64C20.9297 12.4325 20.9991 12.1923 20.9991 11.947C20.9991 11.7018 20.9297 11.4615 20.799 11.254L20.8 11.249ZM9.84499 8.50102C10.1237 8.21189 10.4587 7.98294 10.8294 7.82832C11.2 7.6737 11.5984 7.59668 12 7.60202C12.1278 7.60202 12.2504 7.6528 12.3408 7.74319C12.4312 7.83359 12.482 7.95619 12.482 8.08402C12.482 8.21186 12.4312 8.33446 12.3408 8.42485C12.2504 8.51524 12.1278 8.56602 12 8.56602C11.4462 8.56682 10.9153 8.78717 10.5237 9.17876C10.1321 9.57035 9.91178 10.1012 9.91099 10.655C9.91099 10.783 9.86016 10.9057 9.76967 10.9962C9.67918 11.0867 9.55646 11.1375 9.42849 11.1375C9.30052 11.1375 9.1778 11.0867 9.08731 10.9962C8.99683 10.9057 8.94599 10.783 8.94599 10.655C8.94085 10.2536 9.01796 9.85544 9.17257 9.48499C9.32719 9.11453 9.55603 8.77966 9.84499 8.50102ZM16.364 15.221C15.0482 16.0194 13.5386 16.4415 11.9995 16.4415C10.4604 16.4415 8.95082 16.0194 7.63499 15.221C6.28253 14.3978 5.13657 13.2758 4.28499 11.941C5.21958 10.4372 6.54142 9.21244 8.11199 8.39502C7.7068 9.07896 7.49493 9.86008 7.49899 10.655C7.49036 11.247 7.60312 11.8346 7.83031 12.3813C8.05751 12.9281 8.39433 13.4225 8.81999 13.834C9.23154 14.26 9.72606 14.5971 10.273 14.8245C10.82 15.0519 11.4077 15.1647 12 15.156C12.592 15.1647 13.1795 15.0519 13.7263 14.8247C14.273 14.5975 14.7674 14.2607 15.179 13.835C15.6047 13.4235 15.9415 12.9291 16.1688 12.3823C16.396 11.8356 16.5087 11.248 16.5 10.656C16.5041 9.86107 16.2922 9.07994 15.887 8.39603C17.4575 9.21349 18.7794 10.4383 19.714 11.942C18.8625 13.2769 17.7165 14.3979 16.364 15.221Z" fill="#777777"/>
</g>
<defs>
<clipPath id="clip0_2_7081">
<rect width="24" height="24" fill="white"/>
</clipPath>
</defs>
</svg>
