<svg width="41" height="48" viewBox="0 0 41 48" fill="none" xmlns="http://www.w3.org/2000/svg">
<g clip-path="url(#clip0_2_7174)">
<path d="M14.8307 1.56508C15.4307 1.56508 15.9706 1.88288 16.2394 2.39785C16.6306 3.1448 16.321 4.05876 15.5459 4.43455L4.36971 9.87423C4.14412 9.98326 3.90653 10.0389 3.65935 10.0389C3.06178 10.0389 2.52181 9.71881 2.25063 9.20616C1.85945 8.45922 2.16903 7.54526 2.94419 7.16947L14.1179 1.72746C14.3411 1.61844 14.5811 1.56276 14.8283 1.56276M14.8283 0.0480042C14.3507 0.0480042 13.8636 0.15239 13.4076 0.375081L2.23143 5.81476C0.676318 6.57099 0.0547532 8.39658 0.841908 9.89047C1.39628 10.9459 2.50501 11.556 3.65695 11.556C4.13692 11.556 4.62169 11.4516 5.07767 11.2289L16.2562 5.78693C17.8089 5.03071 18.4305 3.20511 17.6457 1.71123C17.089 0.655764 15.9802 0.0480042 14.8283 0.0480042Z" fill="#4285F4"/>
<path d="M3.65472 23.688C2.50519 23.688 1.39645 23.0802 0.839682 22.0225C0.0549269 20.5286 0.676491 18.703 2.2292 17.9468L36.2449 0.685914C37.7976 -0.0679864 39.6935 0.528175 40.4806 2.02438C41.2654 3.51826 40.6438 5.34386 39.0911 6.10008L5.07784 23.3609C4.62187 23.5836 4.13709 23.688 3.65712 23.688H3.65472Z" fill="#4285F4"/>
<path d="M3.65472 47.952C2.50519 47.952 1.39645 47.3443 0.839682 46.2865C0.0549269 44.7926 0.676491 42.967 2.2292 42.2108L36.2449 25.6551C37.7976 24.9012 39.6935 25.4974 40.4806 26.9936C41.2654 28.4875 40.6438 30.3131 39.0911 31.0693L5.07784 47.625C4.62187 47.8476 4.13709 47.952 3.65712 47.952H3.65472Z" fill="#4285F4"/>
<path d="M27.4733 19.6749C28.0732 19.6749 28.6132 19.9927 28.882 20.5077C29.0716 20.8696 29.1052 21.2802 28.9732 21.6652C28.8412 22.0503 28.5628 22.3635 28.1884 22.5444L4.3674 34.1406C4.14181 34.2496 3.90423 34.3053 3.65704 34.3053C3.05947 34.3053 2.51951 33.9851 2.24832 33.4725C2.05873 33.1106 2.02513 32.7 2.15713 32.315C2.28912 31.9299 2.5675 31.6167 2.94188 31.4358L26.7629 19.8396C26.9861 19.7306 27.2261 19.6749 27.4733 19.6749ZM27.4733 18.1579C26.9957 18.1579 26.5085 18.2623 26.055 18.4849L2.23152 30.0788C0.678811 30.835 0.0572462 32.6606 0.842001 34.1545C1.39637 35.2099 2.50511 35.82 3.65704 35.82C4.13701 35.82 4.62179 35.7156 5.07776 35.4929L28.9012 23.8968C30.4539 23.1406 31.0755 21.315 30.2907 19.8211C29.7363 18.7656 28.6252 18.1579 27.4757 18.1579H27.4733Z" fill="#4285F4"/>
<path d="M29.2083 47.952C28.0588 47.952 26.95 47.3443 26.3933 46.2865C25.6085 44.7926 26.2301 42.967 27.7828 42.2108L36.2447 37.7871C37.7974 37.0332 39.6933 37.6294 40.4805 39.1256C41.2652 40.6195 40.6437 42.4451 39.0909 43.2013L30.629 47.6249C30.1731 47.8476 29.6883 47.952 29.2083 47.952Z" fill="#4285F4"/>
</g>
<defs>
<clipPath id="clip0_2_7174">
<rect width="40" height="48" fill="white" transform="translate(0.5)"/>
</clipPath>
</defs>
</svg>
